# xmcd CD database file
#
# Track frame offsets:
#	151
#	22957
#	36200
#	47072
#	57451
#	77548
#	93017
#	107017
#	121182
#	138735
#	151408
#	170747
#	188416
#	198679
#
# Disc length: 2944 seconds
#
# Revision: 0
# Processed by: cddbd v1.5.2PL0 Copyright (c) Steve Scherf et al.
# Submitted via: CDex 1.51
#
DISCID=b40b7e0e
DTITLE=Bernard Henry - The Light of Home
DYEAR=1900
DGENRE=Country
TTITLE0=The Light of Home
TTITLE1=I Still Love You
TTITLE2=Until You Return To Me
TTITLE3=An Old Love Affair
TTITLE4=The Sailor Boy
TTITLE5=You're My Best Friend
TTITLE6=Always Argyll
TTITLE7=The Wedding Prayer
TTITLE8=Nearest To Perfect
TTITLE9=Never Grow Old
TTITLE10=Gold and Silver Years
TTITLE11=Leaving Nancy
TTITLE12=This Land Is Your Land
TTITLE13=The Rose of Mooncoin
EXTD=
EXTT0=
EXTT1=
EXTT2=
EXTT3=
EXTT4=
EXTT5=
EXTT6=
EXTT7=
EXTT8=
EXTT9=
EXTT10=
EXTT11=
EXTT12=
EXTT13=
PLAYORDER=
